<?xml version="1.0" encoding="UTF-8" standalone="no"?>
<!-- Created with Inkscape (http://www.inkscape.org/) -->

<svg
   width="32.645866mm"
   height="32.645866mm"
   viewBox="0 0 32.645866 32.645866"
   version="1.1"
   id="svg5"
   inkscape:version="1.1.2 (0a00cf5339, 2022-02-04)"
   sodipodi:docname="drawing.svg"
   inkscape:export-filename="/home/pwl/Projects/techblog/assets/img/chip.png"
   inkscape:export-xdpi="96"
   inkscape:export-ydpi="96"
   xmlns:inkscape="http://www.inkscape.org/namespaces/inkscape"
   xmlns:sodipodi="http://sodipodi.sourceforge.net/DTD/sodipodi-0.dtd"
   xmlns:xlink="http://www.w3.org/1999/xlink"
   xmlns="http://www.w3.org/2000/svg"
   xmlns:svg="http://www.w3.org/2000/svg">
  <sodipodi:namedview
     id="namedview7"
     pagecolor="#505050"
     bordercolor="#eeeeee"
     borderopacity="1"
     inkscape:pageshadow="0"
     inkscape:pageopacity="0"
     inkscape:pagecheckerboard="0"
     inkscape:document-units="mm"
     showgrid="false"
     showguides="true"
     inkscape:guide-bbox="true"
     inkscape:snap-bbox="true"
     inkscape:bbox-paths="false"
     inkscape:object-paths="true"
     inkscape:bbox-nodes="false"
     inkscape:snap-bbox-edge-midpoints="false"
     inkscape:snap-bbox-midpoints="true"
     inkscape:snap-intersection-paths="true"
     inkscape:snap-smooth-nodes="true"
     fit-margin-top="0"
     fit-margin-left="0"
     fit-margin-right="0"
     fit-margin-bottom="0"
     inkscape:zoom="5.12"
     inkscape:cx="45.605469"
     inkscape:cy="54.980469"
     inkscape:window-width="1640"
     inkscape:window-height="756"
     inkscape:window-x="37"
     inkscape:window-y="30"
     inkscape:window-maximized="0"
     inkscape:current-layer="layer3" />
  <defs
     id="defs2">
    <linearGradient
       inkscape:collect="always"
       id="linearGradient44519">
      <stop
         style="stop-color:#000000;stop-opacity:1;"
         offset="0"
         id="stop44515" />
      <stop
         style="stop-color:#000000;stop-opacity:0;"
         offset="1"
         id="stop44517" />
    </linearGradient>
    <inkscape:path-effect
       effect="fillet_chamfer"
       id="path-effect1792"
       is_visible="true"
       lpeversion="1"
       satellites_param="F,0,0,1,0,1.5875,0,1 @ F,0,0,1,0,1.5875,0,1 @ F,0,0,1,0,1.5875,0,1 @ F,0,0,1,0,1.5875,0,1"
       unit="px"
       method="auto"
       mode="F"
       radius="6"
       chamfer_steps="1"
       flexible="false"
       use_knot_distance="true"
       apply_no_radius="true"
       apply_with_radius="true"
       only_selected="false"
       hide_knots="false" />
    <inkscape:path-effect
       effect="fillet_chamfer"
       id="path-effect998"
       is_visible="true"
       lpeversion="1"
       satellites_param="F,0,0,1,0,7.9375,0,1 @ F,0,0,1,0,7.9375,0,1 @ F,0,0,1,0,7.9375,0,1 @ F,0,0,1,0,7.9375,0,1"
       unit="px"
       method="auto"
       mode="F"
       radius="30"
       chamfer_steps="1"
       flexible="false"
       use_knot_distance="true"
       apply_no_radius="true"
       apply_with_radius="true"
       only_selected="false"
       hide_knots="false" />
    <inkscape:path-effect
       effect="fillet_chamfer"
       id="path-effect1792-5"
       is_visible="true"
       lpeversion="1"
       satellites_param="F,0,0,1,0,2.6458333,0,1 @ F,0,0,1,0,2.6458333,0,1 @ F,0,0,1,0,2.6458333,0,1 @ F,0,0,1,0,2.6458333,0,1"
       unit="px"
       method="auto"
       mode="F"
       radius="16"
       chamfer_steps="1"
       flexible="false"
       use_knot_distance="true"
       apply_no_radius="true"
       apply_with_radius="true"
       only_selected="false"
       hide_knots="false" />
    <inkscape:path-effect
       effect="fillet_chamfer"
       id="path-effect1792-4"
       is_visible="true"
       lpeversion="1"
       satellites_param="F,0,0,1,0,2.6458333,0,1 @ F,0,0,1,0,2.6458333,0,1 @ F,0,0,1,0,2.6458333,0,1 @ F,0,0,1,0,2.6458333,0,1"
       unit="px"
       method="auto"
       mode="F"
       radius="10"
       chamfer_steps="1"
       flexible="false"
       use_knot_distance="true"
       apply_no_radius="true"
       apply_with_radius="true"
       only_selected="false"
       hide_knots="false" />
    <inkscape:path-effect
       effect="fillet_chamfer"
       id="path-effect998-0"
       is_visible="true"
       lpeversion="1"
       satellites_param="F,0,0,1,0,7.9375,0,1 @ F,0,0,1,0,7.9375,0,1 @ F,0,0,1,0,7.9375,0,1 @ F,0,0,1,0,7.9375,0,1"
       unit="px"
       method="auto"
       mode="F"
       radius="30"
       chamfer_steps="1"
       flexible="false"
       use_knot_distance="true"
       apply_no_radius="true"
       apply_with_radius="true"
       only_selected="false"
       hide_knots="false" />
    <radialGradient
       inkscape:collect="always"
       xlink:href="#linearGradient44519"
       id="radialGradient44521"
       cx="35.044739"
       cy="139.84869"
       fx="35.044739"
       fy="139.84869"
       r="16.190641"
       gradientUnits="userSpaceOnUse" />
  </defs>
  <g
     inkscape:groupmode="layer"
     id="layer3"
     inkscape:label="Layer 3"
     transform="translate(-18.721804,-123.52576)">
    <path
       style="fill:#91f2d0;fill-opacity:1;fill-rule:evenodd;stroke:url(#radialGradient44521);stroke-width:0.264583"
       id="rect31"
       width="32.381283"
       height="32.381283"
       x="18.854095"
       y="123.65805"
       sodipodi:type="rect"
       d="m 26.791595,123.65805 h 16.506283 a 7.9375,7.9375 45 0 1 7.9375,7.9375 v 16.50628 a 7.9375,7.9375 135 0 1 -7.9375,7.9375 H 26.791595 a 7.9375,7.9375 45 0 1 -7.9375,-7.9375 v -16.50628 a 7.9375,7.9375 135 0 1 7.9375,-7.9375 z"
       inkscape:path-effect="#path-effect998" />
    <path
       id="rect31-8"
       style="fill:#13a472;fill-opacity:0.432989;fill-rule:evenodd;stroke-width:0.999999"
       d="m 152.57865,487.93751 h -40.08047 l -0.40638,21.09179 -20.648409,0.37238 v 38.50629 l -0.851308,1.8911 37.949537,39.9559 35.10291,8.9e-4 c 16.56854,4.2e-4 30,-13.43146 30,-30 l 0.001,-34.75864 -39.95587,-38.47908 z"
       transform="scale(0.26458333)"
       sodipodi:nodetypes="cccccccssccc" />
  </g>
  <g
     inkscape:groupmode="layer"
     id="layer2"
     inkscape:label="Layer 2"
     transform="translate(-18.721804,-123.52576)" />
  <g
     inkscape:label="Layer 1"
     inkscape:groupmode="layer"
     id="layer1"
     transform="translate(-18.721804,-123.52576)">
    <path
       id="rect1710"
       style="fill:#000012;fill-opacity:1;stroke-width:0.264583"
       d="m 29.71483,128.2953 a 0.28864467,0.46604025 0 0 0 -0.287838,0.42943 h -10e-4 v 0.0279 a 0.28864467,0.46604025 0 0 0 0,0.009 0.28864467,0.46604025 0 0 0 0,0.0119 v 3.50418 h -0.365349 a 1.5875,1.5875 0 0 0 -1.5875,1.5875 v 0.36484 h -3.516066 -0.03669 v 0.001 a 0.46604025,0.28864467 0 0 0 -0.429432,0.28732 0.46604025,0.28864467 0 0 0 0.429432,0.28784 v 0.001 h 0.02791 a 0.46604025,0.28864467 0 0 0 0.0088,0 0.46604025,0.28864467 0 0 0 0.01189,0 h 3.50418 v 0.94568 h -3.516066 -0.03669 v 0.001 a 0.46604025,0.28864467 0 0 0 -0.429432,0.28732 0.46604025,0.28864467 0 0 0 0.429432,0.28783 v 0.001 h 0.02791 a 0.46604025,0.28864467 0 0 0 0.0088,0 0.46604025,0.28864467 0 0 0 0.01189,0 h 3.50418 v 0.94568 h -3.516066 -0.03669 v 0.001 a 0.46604025,0.28864467 0 0 0 -0.429432,0.28784 0.46604025,0.28864467 0 0 0 0.429432,0.28732 v 0.001 h 0.02791 a 0.46604025,0.28864467 0 0 0 0.0088,0 0.46604025,0.28864467 0 0 0 0.01189,0 h 3.50418 v 0.94568 h -3.516066 -0.03669 v 0.001 a 0.46604025,0.28864467 0 0 0 -0.429432,0.28784 0.46604025,0.28864467 0 0 0 0.429432,0.28784 v 5.2e-4 h 0.02791 a 0.46604025,0.28864467 0 0 0 0.0088,5.1e-4 0.46604025,0.28864467 0 0 0 0.01189,-5.1e-4 h 3.50418 v 0.94619 h -3.516066 -0.03669 v 0.001 a 0.46604025,0.28864467 0 0 0 -0.429432,0.28733 0.46604025,0.28864467 0 0 0 0.429432,0.28783 v 5.2e-4 h 0.02791 a 0.46604025,0.28864467 0 0 0 0.0088,5.2e-4 0.46604025,0.28864467 0 0 0 0.01189,-5.2e-4 h 3.50418 v 0.9462 h -3.516066 -0.03669 v 0.001 a 0.46604025,0.28864467 0 0 0 -0.429432,0.28732 0.46604025,0.28864467 0 0 0 0.429432,0.28784 v 0.001 h 0.02791 a 0.46604025,0.28864467 0 0 0 0.0088,0 0.46604025,0.28864467 0 0 0 0.01189,0 h 3.50418 v 0.94568 h -3.516066 -0.03669 v 0.001 a 0.46604025,0.28864467 0 0 0 -0.429432,0.28733 0.46604025,0.28864467 0 0 0 0.429432,0.28783 v 0.001 h 0.02791 a 0.46604025,0.28864467 0 0 0 0.0088,0 0.46604025,0.28864467 0 0 0 0.01189,0 h 3.50418 v 0.94568 h -3.516066 -0.03669 v 0.001 a 0.46604025,0.28864467 0 0 0 -0.429432,0.28732 0.46604025,0.28864467 0 0 0 0.429432,0.28784 v 0.001 h 0.02791 a 0.46604025,0.28864467 0 0 0 0.0088,0 0.46604025,0.28864467 0 0 0 0.01189,0 h 3.50418 v 0.36484 a 1.5875,1.5875 0 0 0 1.5875,1.5875 h 0.365349 v 3.51606 0.0367 h 0.001 a 0.28864467,0.46604025 0 0 0 0.287322,0.42943 0.28864467,0.46604025 0 0 0 0.287837,-0.42943 h 0.001 v -0.0279 a 0.28864467,0.46604025 0 0 0 0,-5.2e-4 0.28864467,0.46604025 0 0 0 0,-5.2e-4 0.28864467,0.46604025 0 0 0 0,-5.1e-4 0.28864467,0.46604025 0 0 0 0,-5.2e-4 0.28864467,0.46604025 0 0 0 0,-5.2e-4 0.28864467,0.46604025 0 0 0 0,-5.1e-4 0.28864467,0.46604025 0 0 0 0,-5.2e-4 0.28864467,0.46604025 0 0 0 0,-5.2e-4 0.28864467,0.46604025 0 0 0 0,-5.1e-4 0.28864467,0.46604025 0 0 0 0,-5.2e-4 0.28864467,0.46604025 0 0 0 0,-5.2e-4 0.28864467,0.46604025 0 0 0 0,-5.1e-4 0.28864467,0.46604025 0 0 0 0,-5.2e-4 0.28864467,0.46604025 0 0 0 0,-5.2e-4 0.28864467,0.46604025 0 0 0 0,-5.2e-4 0.28864467,0.46604025 0 0 0 0,-5.1e-4 0.28864467,0.46604025 0 0 0 0,-5.2e-4 0.28864467,0.46604025 0 0 0 0,-5.2e-4 0.28864467,0.46604025 0 0 0 0,-5.1e-4 0.28864467,0.46604025 0 0 0 0,-5.2e-4 0.28864467,0.46604025 0 0 0 0,-5.2e-4 0.28864467,0.46604025 0 0 0 0,-5.1e-4 0.28864467,0.46604025 0 0 0 0,-5.2e-4 0.28864467,0.46604025 0 0 0 0,-5.2e-4 0.28864467,0.46604025 0 0 0 0,-5.1e-4 0.28864467,0.46604025 0 0 0 0,-5.2e-4 0.28864467,0.46604025 0 0 0 0,-5.2e-4 0.28864467,0.46604025 0 0 0 0,-5.1e-4 0.28864467,0.46604025 0 0 0 0,-5.2e-4 0.28864467,0.46604025 0 0 0 0,-5.2e-4 0.28864467,0.46604025 0 0 0 0,-5.1e-4 0.28864467,0.46604025 0 0 0 0,-5.2e-4 0.28864467,0.46604025 0 0 0 0,-5.2e-4 0.28864467,0.46604025 0 0 0 0,-5.1e-4 0.28864467,0.46604025 0 0 0 0,-5.2e-4 0.28864467,0.46604025 0 0 0 0,-5.2e-4 0.28864467,0.46604025 0 0 0 0,-5.1e-4 0.28864467,0.46604025 0 0 0 0,-5.2e-4 0.28864467,0.46604025 0 0 0 0,-5.2e-4 0.28864467,0.46604025 0 0 0 0,-5.1e-4 v -3.50418 h 0.945676 v 3.51606 0.0367 h 0.001 a 0.28864467,0.46604025 0 0 0 0.287321,0.42943 0.28864467,0.46604025 0 0 0 0.287838,-0.42943 h 0.001 v -0.0279 a 0.28864467,0.46604025 0 0 0 0,-5.2e-4 0.28864467,0.46604025 0 0 0 0,-5.2e-4 0.28864467,0.46604025 0 0 0 0,-5.1e-4 0.28864467,0.46604025 0 0 0 0,-5.2e-4 0.28864467,0.46604025 0 0 0 0,-5.2e-4 0.28864467,0.46604025 0 0 0 0,-5.1e-4 0.28864467,0.46604025 0 0 0 0,-5.2e-4 0.28864467,0.46604025 0 0 0 0,-5.2e-4 0.28864467,0.46604025 0 0 0 0,-5.1e-4 0.28864467,0.46604025 0 0 0 0,-5.2e-4 0.28864467,0.46604025 0 0 0 0,-5.2e-4 0.28864467,0.46604025 0 0 0 0,-5.1e-4 0.28864467,0.46604025 0 0 0 0,-5.2e-4 0.28864467,0.46604025 0 0 0 0,-5.2e-4 0.28864467,0.46604025 0 0 0 0,-5.2e-4 0.28864467,0.46604025 0 0 0 0,-5.1e-4 0.28864467,0.46604025 0 0 0 0,-5.2e-4 0.28864467,0.46604025 0 0 0 0,-5.2e-4 0.28864467,0.46604025 0 0 0 0,-5.1e-4 0.28864467,0.46604025 0 0 0 0,-5.2e-4 0.28864467,0.46604025 0 0 0 0,-5.2e-4 0.28864467,0.46604025 0 0 0 0,-5.1e-4 0.28864467,0.46604025 0 0 0 0,-5.2e-4 0.28864467,0.46604025 0 0 0 0,-5.2e-4 0.28864467,0.46604025 0 0 0 0,-5.1e-4 0.28864467,0.46604025 0 0 0 0,-5.2e-4 0.28864467,0.46604025 0 0 0 0,-5.2e-4 0.28864467,0.46604025 0 0 0 0,-5.1e-4 0.28864467,0.46604025 0 0 0 0,-5.2e-4 0.28864467,0.46604025 0 0 0 0,-5.2e-4 0.28864467,0.46604025 0 0 0 0,-5.1e-4 0.28864467,0.46604025 0 0 0 0,-5.2e-4 0.28864467,0.46604025 0 0 0 0,-5.2e-4 0.28864467,0.46604025 0 0 0 0,-5.1e-4 0.28864467,0.46604025 0 0 0 0,-5.2e-4 0.28864467,0.46604025 0 0 0 0,-5.2e-4 0.28864467,0.46604025 0 0 0 0,-5.1e-4 0.28864467,0.46604025 0 0 0 0,-5.2e-4 0.28864467,0.46604025 0 0 0 0,-5.2e-4 0.28864467,0.46604025 0 0 0 0,-5.1e-4 v -3.50418 h 0.945679 v 3.51606 0.0367 h 10e-4 a 0.28864467,0.46604025 0 0 0 0.287838,0.42943 0.28864467,0.46604025 0 0 0 0.287321,-0.42943 h 0.001 v -0.0279 a 0.28864467,0.46604025 0 0 0 0,-5.2e-4 0.28864467,0.46604025 0 0 0 0,-5.2e-4 0.28864467,0.46604025 0 0 0 0,-5.1e-4 0.28864467,0.46604025 0 0 0 0,-5.2e-4 0.28864467,0.46604025 0 0 0 0,-5.2e-4 0.28864467,0.46604025 0 0 0 0,-5.1e-4 0.28864467,0.46604025 0 0 0 0,-5.2e-4 0.28864467,0.46604025 0 0 0 0,-5.2e-4 0.28864467,0.46604025 0 0 0 0,-5.1e-4 0.28864467,0.46604025 0 0 0 0,-5.2e-4 0.28864467,0.46604025 0 0 0 0,-5.2e-4 0.28864467,0.46604025 0 0 0 0,-5.1e-4 0.28864467,0.46604025 0 0 0 0,-5.2e-4 0.28864467,0.46604025 0 0 0 0,-5.2e-4 0.28864467,0.46604025 0 0 0 0,-5.2e-4 0.28864467,0.46604025 0 0 0 0,-5.1e-4 0.28864467,0.46604025 0 0 0 0,-5.2e-4 0.28864467,0.46604025 0 0 0 0,-5.2e-4 0.28864467,0.46604025 0 0 0 0,-5.1e-4 0.28864467,0.46604025 0 0 0 0,-5.2e-4 0.28864467,0.46604025 0 0 0 0,-5.2e-4 0.28864467,0.46604025 0 0 0 0,-5.1e-4 0.28864467,0.46604025 0 0 0 0,-5.2e-4 0.28864467,0.46604025 0 0 0 0,-5.2e-4 0.28864467,0.46604025 0 0 0 0,-5.1e-4 0.28864467,0.46604025 0 0 0 0,-5.2e-4 0.28864467,0.46604025 0 0 0 0,-5.2e-4 0.28864467,0.46604025 0 0 0 0,-5.1e-4 0.28864467,0.46604025 0 0 0 0,-5.2e-4 0.28864467,0.46604025 0 0 0 0,-5.2e-4 0.28864467,0.46604025 0 0 0 0,-5.1e-4 0.28864467,0.46604025 0 0 0 0,-5.2e-4 0.28864467,0.46604025 0 0 0 0,-5.2e-4 0.28864467,0.46604025 0 0 0 0,-5.1e-4 0.28864467,0.46604025 0 0 0 0,-5.2e-4 0.28864467,0.46604025 0 0 0 0,-5.2e-4 0.28864467,0.46604025 0 0 0 0,-5.1e-4 0.28864467,0.46604025 0 0 0 0,-5.2e-4 0.28864467,0.46604025 0 0 0 0,-5.2e-4 0.28864467,0.46604025 0 0 0 0,-5.1e-4 v -3.50418 h 0.945679 v 3.51606 0.0367 h 10e-4 a 0.28864467,0.46604025 0 0 0 0.287837,0.42943 0.28864467,0.46604025 0 0 0 0.287838,-0.42943 h 5.16e-4 v -0.0279 a 0.28864467,0.46604025 0 0 0 5.18e-4,-0.009 0.28864467,0.46604025 0 0 0 -5.18e-4,-0.0119 v -3.50418 h 0.946197 v 3.51606 0.0367 h 0.001 a 0.28864467,0.46604025 0 0 0 0.287322,0.42943 0.28864467,0.46604025 0 0 0 0.287837,-0.42943 h 5.16e-4 v -0.0279 a 0.28864467,0.46604025 0 0 0 5.19e-4,-0.009 0.28864467,0.46604025 0 0 0 -5.19e-4,-0.0119 v -3.50418 h 0.946198 v 3.51606 0.0367 h 10e-4 a 0.28864467,0.46604025 0 0 0 0.287322,0.42943 0.28864467,0.46604025 0 0 0 0.287837,-0.42943 h 0.001 v -0.0279 a 0.28864467,0.46604025 0 0 0 0,-5.2e-4 0.28864467,0.46604025 0 0 0 0,-5.2e-4 0.28864467,0.46604025 0 0 0 0,-5.1e-4 0.28864467,0.46604025 0 0 0 0,-5.2e-4 0.28864467,0.46604025 0 0 0 0,-5.2e-4 0.28864467,0.46604025 0 0 0 0,-5.1e-4 0.28864467,0.46604025 0 0 0 0,-5.2e-4 0.28864467,0.46604025 0 0 0 0,-5.2e-4 0.28864467,0.46604025 0 0 0 0,-5.1e-4 0.28864467,0.46604025 0 0 0 0,-5.2e-4 0.28864467,0.46604025 0 0 0 0,-5.2e-4 0.28864467,0.46604025 0 0 0 0,-5.1e-4 0.28864467,0.46604025 0 0 0 0,-5.2e-4 0.28864467,0.46604025 0 0 0 0,-5.2e-4 0.28864467,0.46604025 0 0 0 0,-5.2e-4 0.28864467,0.46604025 0 0 0 0,-5.1e-4 0.28864467,0.46604025 0 0 0 0,-5.2e-4 0.28864467,0.46604025 0 0 0 0,-5.2e-4 0.28864467,0.46604025 0 0 0 0,-5.1e-4 0.28864467,0.46604025 0 0 0 0,-5.2e-4 0.28864467,0.46604025 0 0 0 0,-5.2e-4 0.28864467,0.46604025 0 0 0 0,-5.1e-4 0.28864467,0.46604025 0 0 0 0,-5.2e-4 0.28864467,0.46604025 0 0 0 0,-5.2e-4 0.28864467,0.46604025 0 0 0 0,-5.1e-4 0.28864467,0.46604025 0 0 0 0,-5.2e-4 0.28864467,0.46604025 0 0 0 0,-5.2e-4 0.28864467,0.46604025 0 0 0 0,-5.1e-4 0.28864467,0.46604025 0 0 0 0,-5.2e-4 0.28864467,0.46604025 0 0 0 0,-5.2e-4 0.28864467,0.46604025 0 0 0 0,-5.1e-4 0.28864467,0.46604025 0 0 0 0,-5.2e-4 0.28864467,0.46604025 0 0 0 0,-5.2e-4 0.28864467,0.46604025 0 0 0 0,-5.1e-4 0.28864467,0.46604025 0 0 0 0,-5.2e-4 0.28864467,0.46604025 0 0 0 0,-5.2e-4 0.28864467,0.46604025 0 0 0 0,-5.1e-4 0.28864467,0.46604025 0 0 0 0,-5.2e-4 0.28864467,0.46604025 0 0 0 0,-5.2e-4 0.28864467,0.46604025 0 0 0 0,-5.1e-4 v -3.50418 h 0.945676 v 3.51606 0.0367 h 10e-4 a 0.28864467,0.46604025 0 0 0 0.287321,0.42943 0.28864467,0.46604025 0 0 0 0.287838,-0.42943 h 10e-4 v -0.0279 a 0.28864467,0.46604025 0 0 0 0,-5.2e-4 0.28864467,0.46604025 0 0 0 0,-5.2e-4 0.28864467,0.46604025 0 0 0 0,-5.1e-4 0.28864467,0.46604025 0 0 0 0,-5.2e-4 0.28864467,0.46604025 0 0 0 0,-5.2e-4 0.28864467,0.46604025 0 0 0 0,-5.1e-4 0.28864467,0.46604025 0 0 0 0,-5.2e-4 0.28864467,0.46604025 0 0 0 0,-5.2e-4 0.28864467,0.46604025 0 0 0 0,-5.1e-4 0.28864467,0.46604025 0 0 0 0,-5.2e-4 0.28864467,0.46604025 0 0 0 0,-5.2e-4 0.28864467,0.46604025 0 0 0 0,-5.1e-4 0.28864467,0.46604025 0 0 0 0,-5.2e-4 0.28864467,0.46604025 0 0 0 0,-5.2e-4 0.28864467,0.46604025 0 0 0 0,-5.2e-4 0.28864467,0.46604025 0 0 0 0,-5.1e-4 0.28864467,0.46604025 0 0 0 0,-5.2e-4 0.28864467,0.46604025 0 0 0 0,-5.2e-4 0.28864467,0.46604025 0 0 0 0,-5.1e-4 0.28864467,0.46604025 0 0 0 0,-5.2e-4 0.28864467,0.46604025 0 0 0 0,-5.2e-4 0.28864467,0.46604025 0 0 0 0,-5.1e-4 0.28864467,0.46604025 0 0 0 0,-5.2e-4 0.28864467,0.46604025 0 0 0 0,-5.2e-4 0.28864467,0.46604025 0 0 0 0,-5.1e-4 0.28864467,0.46604025 0 0 0 0,-5.2e-4 0.28864467,0.46604025 0 0 0 0,-5.2e-4 0.28864467,0.46604025 0 0 0 0,-5.1e-4 0.28864467,0.46604025 0 0 0 0,-5.2e-4 0.28864467,0.46604025 0 0 0 0,-5.2e-4 0.28864467,0.46604025 0 0 0 0,-5.1e-4 0.28864467,0.46604025 0 0 0 0,-5.2e-4 0.28864467,0.46604025 0 0 0 0,-5.2e-4 0.28864467,0.46604025 0 0 0 0,-5.1e-4 0.28864467,0.46604025 0 0 0 0,-5.2e-4 0.28864467,0.46604025 0 0 0 0,-5.2e-4 0.28864467,0.46604025 0 0 0 0,-5.1e-4 0.28864467,0.46604025 0 0 0 0,-5.2e-4 0.28864467,0.46604025 0 0 0 0,-5.2e-4 0.28864467,0.46604025 0 0 0 0,-5.1e-4 v -3.50418 h 0.945677 v 3.51606 0.0367 h 10e-4 a 0.28864467,0.46604025 0 0 0 0.287322,0.42943 0.28864467,0.46604025 0 0 0 0.287837,-0.42943 h 0.001 v -0.0279 a 0.28864467,0.46604025 0 0 0 0,-5.2e-4 0.28864467,0.46604025 0 0 0 0,-5.2e-4 0.28864467,0.46604025 0 0 0 0,-5.1e-4 0.28864467,0.46604025 0 0 0 0,-5.2e-4 0.28864467,0.46604025 0 0 0 0,-5.2e-4 0.28864467,0.46604025 0 0 0 0,-5.1e-4 0.28864467,0.46604025 0 0 0 0,-5.2e-4 0.28864467,0.46604025 0 0 0 0,-5.2e-4 0.28864467,0.46604025 0 0 0 0,-5.1e-4 0.28864467,0.46604025 0 0 0 0,-5.2e-4 0.28864467,0.46604025 0 0 0 0,-5.2e-4 0.28864467,0.46604025 0 0 0 0,-5.1e-4 0.28864467,0.46604025 0 0 0 0,-5.2e-4 0.28864467,0.46604025 0 0 0 0,-5.2e-4 0.28864467,0.46604025 0 0 0 0,-5.2e-4 0.28864467,0.46604025 0 0 0 0,-5.1e-4 0.28864467,0.46604025 0 0 0 0,-5.2e-4 0.28864467,0.46604025 0 0 0 0,-5.2e-4 0.28864467,0.46604025 0 0 0 0,-5.1e-4 0.28864467,0.46604025 0 0 0 0,-5.2e-4 0.28864467,0.46604025 0 0 0 0,-5.2e-4 0.28864467,0.46604025 0 0 0 0,-5.1e-4 0.28864467,0.46604025 0 0 0 0,-5.2e-4 0.28864467,0.46604025 0 0 0 0,-5.2e-4 0.28864467,0.46604025 0 0 0 0,-5.1e-4 0.28864467,0.46604025 0 0 0 0,-5.2e-4 0.28864467,0.46604025 0 0 0 0,-5.2e-4 0.28864467,0.46604025 0 0 0 0,-5.1e-4 0.28864467,0.46604025 0 0 0 0,-5.2e-4 0.28864467,0.46604025 0 0 0 0,-5.2e-4 0.28864467,0.46604025 0 0 0 0,-5.1e-4 0.28864467,0.46604025 0 0 0 0,-5.2e-4 0.28864467,0.46604025 0 0 0 0,-5.2e-4 0.28864467,0.46604025 0 0 0 0,-5.1e-4 0.28864467,0.46604025 0 0 0 0,-5.2e-4 0.28864467,0.46604025 0 0 0 0,-5.2e-4 0.28864467,0.46604025 0 0 0 0,-5.1e-4 0.28864467,0.46604025 0 0 0 0,-5.2e-4 0.28864467,0.46604025 0 0 0 0,-5.2e-4 0.28864467,0.46604025 0 0 0 0,-5.1e-4 v -3.50418 h 0.364837 a 1.5875,1.5875 0 0 0 1.5875,-1.5875 v -0.36484 h 3.516064 0.03669 v -0.001 a 0.46604025,0.28864467 0 0 0 0.429429,-0.28732 0.46604025,0.28864467 0 0 0 -0.429429,-0.28784 v -0.001 h -0.02791 a 0.46604025,0.28864467 0 0 0 -0.0093,0 0.46604025,0.28864467 0 0 0 -0.01189,0 h -3.503662 v -0.94568 h 3.516064 0.03669 v -10e-4 a 0.46604025,0.28864467 0 0 0 0.429429,-0.28732 0.46604025,0.28864467 0 0 0 -0.429429,-0.28784 v -0.001 h -0.02791 a 0.46604025,0.28864467 0 0 0 -0.0093,0 0.46604025,0.28864467 0 0 0 -0.01189,0 h -3.503662 v -0.94568 h 3.516064 0.03669 v -10e-4 a 0.46604025,0.28864467 0 0 0 0.429429,-0.28784 0.46604025,0.28864467 0 0 0 -0.429429,-0.28732 v -0.001 h -0.02791 a 0.46604025,0.28864467 0 0 0 -0.0093,0 0.46604025,0.28864467 0 0 0 -0.01189,0 h -3.503662 v -0.94568 h 3.516064 0.03669 v -0.001 a 0.46604025,0.28864467 0 0 0 0.429429,-0.28783 0.46604025,0.28864467 0 0 0 -0.429429,-0.28784 v -5.2e-4 h -0.02791 a 0.46604025,0.28864467 0 0 0 -0.0093,-5.2e-4 0.46604025,0.28864467 0 0 0 -0.01189,5.2e-4 h -3.503662 v -0.94619 h 3.516064 0.03669 v -0.001 a 0.46604025,0.28864467 0 0 0 0.429429,-0.28732 0.46604025,0.28864467 0 0 0 -0.429429,-0.28784 v -5.1e-4 h -0.02791 a 0.46604025,0.28864467 0 0 0 -0.0093,-5.2e-4 0.46604025,0.28864467 0 0 0 -0.01189,5.2e-4 h -3.503662 v -0.9462 h 3.516064 0.03669 v -0.001 a 0.46604025,0.28864467 0 0 0 0.429429,-0.28732 0.46604025,0.28864467 0 0 0 -0.429429,-0.28784 v -0.001 h -0.02791 a 0.46604025,0.28864467 0 0 0 -0.0093,0 0.46604025,0.28864467 0 0 0 -0.01189,0 h -3.503662 v -0.94568 h 3.516064 0.03669 v -0.001 a 0.46604025,0.28864467 0 0 0 0.429429,-0.28732 0.46604025,0.28864467 0 0 0 -0.429429,-0.28783 v -0.001 h -0.02791 a 0.46604025,0.28864467 0 0 0 -0.0093,0 0.46604025,0.28864467 0 0 0 -0.01189,0 h -3.503662 v -0.94568 h 3.516064 0.03669 v -0.001 a 0.46604025,0.28864467 0 0 0 0.429429,-0.28732 0.46604025,0.28864467 0 0 0 -0.429429,-0.28784 v -0.001 h -0.02791 a 0.46604025,0.28864467 0 0 0 -0.0093,0 0.46604025,0.28864467 0 0 0 -0.01189,0 h -3.503662 v -0.36484 a 1.5875,1.5875 0 0 0 -1.5875,-1.5875 h -0.364837 v -3.51606 -0.0367 h -10e-4 a 0.28864467,0.46604025 0 0 0 -0.287321,-0.42943 0.28864467,0.46604025 0 0 0 -0.287838,0.42943 h -0.001 v 0.0279 a 0.28864467,0.46604025 0 0 0 0,0.009 0.28864467,0.46604025 0 0 0 0,0.0119 v 3.50418 h -0.945677 v -3.51606 -0.0367 h -0.001 a 0.28864467,0.46604025 0 0 0 -0.287322,-0.42943 0.28864467,0.46604025 0 0 0 -0.287837,0.42943 h -10e-4 v 0.0279 a 0.28864467,0.46604025 0 0 0 0,0.009 0.28864467,0.46604025 0 0 0 0,0.0119 v 3.50418 h -0.945676 v -3.51606 -0.0367 h -0.001 a 0.28864467,0.46604025 0 0 0 -0.287837,-0.42943 0.28864467,0.46604025 0 0 0 -0.287322,0.42943 h -10e-4 v 0.0279 a 0.28864467,0.46604025 0 0 0 0,0.009 0.28864467,0.46604025 0 0 0 0,0.0119 v 3.50418 H 36.09532 v -3.51606 -0.0367 h -10e-4 a 0.28864467,0.46604025 0 0 0 -0.287837,-0.42943 0.28864467,0.46604025 0 0 0 -0.287838,0.42943 h -5.16e-4 v 0.0279 a 0.28864467,0.46604025 0 0 0 -5.18e-4,0.009 0.28864467,0.46604025 0 0 0 5.18e-4,0.0119 v 3.50418 h -0.946197 v -3.51606 -0.0367 h -10e-4 a 0.28864467,0.46604025 0 0 0 -0.287322,-0.42943 0.28864467,0.46604025 0 0 0 -0.287837,0.42943 h -5.16e-4 v 0.0279 a 0.28864467,0.46604025 0 0 0 -5.19e-4,0.009 0.28864467,0.46604025 0 0 0 5.19e-4,0.0119 v 3.50418 h -0.946198 v -3.51606 -0.0367 h -10e-4 a 0.28864467,0.46604025 0 0 0 -0.287321,-0.42943 0.28864467,0.46604025 0 0 0 -0.287838,0.42943 h -0.001 v 0.0279 a 0.28864467,0.46604025 0 0 0 0,0.009 0.28864467,0.46604025 0 0 0 0,0.0119 v 3.50418 h -0.945679 v -3.51606 -0.0367 h -0.001 a 0.28864467,0.46604025 0 0 0 -0.287322,-0.42943 0.28864467,0.46604025 0 0 0 -0.287837,0.42943 h -10e-4 v 0.0279 a 0.28864467,0.46604025 0 0 0 0,0.009 0.28864467,0.46604025 0 0 0 0,0.0119 v 3.50418 h -0.945676 v -3.51606 -0.0367 h -10e-4 a 0.28864467,0.46604025 0 0 0 -0.287321,-0.42943 z" />
  </g>
</svg>
